# xmcd
#
# Track frame offsets:
#	150
#	14887
#	29125
#	43387
#	57995
#	73490
#	89004
#	105032
#	121550
#	138070
#	153120
#	169727
#
# Disc length: 2456 seconds
#
# Revision: 1
# Processed by: cddbd v1.5.2PL0 Copyright (c) Steve Scherf et al.
# Submitted via: audiograbber 1.83.01
#
DISCID=a409960c
DTITLE=NEVADA the Band - Let's go racin'
DYEAR=1900
DGENRE=Country
TTITLE0=Let's go racin'
TTITLE1=Start your engines
TTITLE2=You can't win the race
TTITLE3=The intimidator
TTITLE4=The bandit's last ride
TTITLE5=Headin' down to Daytona
TTITLE6=Rollin' thunder
TTITLE7=New kid on the track
TTITLE8=He just walked away
TTITLE9=Alabama gang
TTITLE10=Stock car queen
TTITLE11=Race track in the sky
EXTD=
EXTT0=
EXTT1=
EXTT2=
EXTT3=
EXTT4=
EXTT5=
EXTT6=
EXTT7=
EXTT8=
EXTT9=
EXTT10=
EXTT11=
PLAYORDER=
